<svg width="22" height="18" viewBox="0 0 22 18" fill="none" xmlns="http://www.w3.org/2000/svg">
<path d="M0.755982 3.3902L7.94609 17.0511C8.12613 17.3979 8.43986 17.663 8.84063 17.8069C9.2414 17.9508 9.7078 17.9659 10.1705 17.8499C10.6783 17.7328 11.1591 17.4795 11.5435 17.1269C11.9278 16.7742 12.1955 16.3405 12.3079 15.8885L13.62 10.5931L19.499 8.76276C20.0007 8.60618 20.461 8.3185 20.8131 7.94142C21.1652 7.56434 21.3909 7.11745 21.4574 6.66552C21.5075 6.37257 21.4823 6.08517 21.3836 5.82538C21.2849 5.56559 21.1154 5.3403 20.888 5.1668C20.7055 5.02653 20.4889 4.92247 20.2491 4.85984L3.67932 0.493415C3.28365 0.390049 2.83978 0.403336 2.40667 0.531512C1.97357 0.659688 1.57171 0.896687 1.25449 1.21103C0.937266 1.52537 0.719684 1.90218 0.630644 2.29141C0.541602 2.68064 0.585318 3.06387 0.755982 3.3902Z" fill="#FF6100"/>
</svg>
