<svg width="128" height="48" viewBox="0 0 128 48" fill="none" xmlns="http://www.w3.org/2000/svg">
<path d="M5.75598 8.3902L12.9461 22.0511C13.1261 22.3979 13.4399 22.663 13.8406 22.8069C14.2414 22.9508 14.7078 22.9659 15.1705 22.8499C15.6783 22.7328 16.1591 22.4795 16.5435 22.1269C16.9278 21.7742 17.1955 21.3405 17.3079 20.8885L18.62 15.5931L24.499 13.7628C25.0007 13.6062 25.461 13.3185 25.8131 12.9414C26.1652 12.5643 26.3909 12.1175 26.4574 11.6655C26.5075 11.3726 26.4823 11.0852 26.3836 10.8254C26.2849 10.5656 26.1154 10.3403 25.888 10.1668C25.7055 10.0265 25.4889 9.92247 25.2491 9.85984L8.67932 5.49342C8.28365 5.39005 7.83978 5.40334 7.40667 5.53151C6.97357 5.65969 6.57171 5.89669 6.25449 6.21103C5.93727 6.52537 5.71968 6.90218 5.63064 7.29141C5.5416 7.68064 5.58532 8.06387 5.75598 8.3902Z" fill="#FF6100"/>
<rect x="21" y="18" width="79" height="30" rx="15" fill="#FF6100"/>
<path d="M32.134 38V28.396H33.702V36.642H38.49V38H32.134ZM42.7146 38.168C41.9586 38.168 41.3239 38.0327 40.8106 37.762C40.3066 37.482 39.9239 37.0573 39.6626 36.488C39.4013 35.9187 39.2706 35.1953 39.2706 34.318C39.2706 33.4313 39.4013 32.708 39.6626 32.148C39.9239 31.5787 40.3113 31.1587 40.8246 30.888C41.3379 30.608 41.9773 30.468 42.7426 30.468C43.4426 30.468 44.0259 30.6033 44.4926 30.874C44.9686 31.1353 45.3279 31.5367 45.5706 32.078C45.8133 32.6193 45.9346 33.3007 45.9346 34.122V34.682H40.7686C40.7873 35.2047 40.8666 35.6433 41.0066 35.998C41.1466 36.3433 41.3566 36.6 41.6366 36.768C41.9259 36.9267 42.2899 37.006 42.7286 37.006C42.9993 37.006 43.2419 36.9733 43.4566 36.908C43.6713 36.8333 43.8533 36.7307 44.0026 36.6C44.1519 36.46 44.2686 36.2967 44.3526 36.11C44.4366 35.914 44.4786 35.6947 44.4786 35.452H45.9066C45.9066 35.8907 45.8319 36.278 45.6826 36.614C45.5333 36.95 45.3139 37.2347 45.0246 37.468C44.7446 37.692 44.4086 37.8647 44.0166 37.986C43.6246 38.1073 43.1906 38.168 42.7146 38.168ZM40.7966 33.618H44.4086C44.4086 33.254 44.3666 32.9507 44.2826 32.708C44.2079 32.456 44.0959 32.2507 43.9466 32.092C43.7973 31.9333 43.6199 31.8213 43.4146 31.756C43.2093 31.6813 42.9759 31.644 42.7146 31.644C42.3226 31.644 41.9866 31.714 41.7066 31.854C41.4359 31.994 41.2259 32.2133 41.0766 32.512C40.9273 32.8013 40.8339 33.17 40.7966 33.618ZM49.2486 38.168C48.8286 38.168 48.4972 38.0887 48.2546 37.93C48.0212 37.762 47.8532 37.552 47.7506 37.3C47.6572 37.0387 47.6106 36.7633 47.6106 36.474V31.84H46.6866V30.636H47.6386L47.9046 28.578H49.0666V30.636H50.3966V31.84H49.0666V36.306C49.0666 36.5207 49.1132 36.684 49.2066 36.796C49.2999 36.908 49.4539 36.964 49.6686 36.964H50.3966V37.944C50.3032 37.9813 50.1866 38.014 50.0466 38.042C49.9159 38.0793 49.7806 38.1073 49.6406 38.126C49.5006 38.154 49.3699 38.168 49.2486 38.168ZM51.6802 32.176V31.532C51.8855 31.4947 52.0535 31.406 52.1842 31.266C52.3149 31.1167 52.4082 30.9347 52.4642 30.72C52.5202 30.5053 52.5482 30.272 52.5482 30.02H51.8062V28.396H53.3742V29.866C53.3742 30.398 53.2902 30.8273 53.1222 31.154C52.9542 31.4713 52.7395 31.7093 52.4782 31.868C52.2262 32.0173 51.9602 32.12 51.6802 32.176ZM57.1716 38.168C56.6582 38.168 56.2056 38.112 55.8136 38C55.4216 37.888 55.0949 37.734 54.8336 37.538C54.5722 37.342 54.3716 37.1087 54.2316 36.838C54.1009 36.558 54.0356 36.25 54.0356 35.914C54.0356 35.8673 54.0356 35.8253 54.0356 35.788C54.0449 35.7507 54.0496 35.718 54.0496 35.69H55.4916C55.4916 35.718 55.4916 35.746 55.4916 35.774C55.4916 35.7927 55.4916 35.816 55.4916 35.844C55.4916 36.1333 55.5709 36.3667 55.7296 36.544C55.8882 36.712 56.0982 36.8333 56.3596 36.908C56.6302 36.9733 56.9242 37.006 57.2416 37.006C57.5216 37.006 57.7782 36.9733 58.0116 36.908C58.2542 36.8333 58.4502 36.726 58.5996 36.586C58.7582 36.446 58.8376 36.2687 58.8376 36.054C58.8376 35.774 58.7396 35.5593 58.5436 35.41C58.3476 35.2607 58.0909 35.144 57.7736 35.06C57.4562 34.9667 57.1249 34.8687 56.7796 34.766C56.4716 34.682 56.1636 34.5933 55.8556 34.5C55.5569 34.3973 55.2862 34.2667 55.0436 34.108C54.8009 33.9493 54.6049 33.7487 54.4556 33.506C54.3062 33.2633 54.2316 32.96 54.2316 32.596C54.2316 32.2507 54.3062 31.9473 54.4556 31.686C54.6049 31.4247 54.8102 31.2053 55.0716 31.028C55.3422 30.8507 55.6596 30.7153 56.0236 30.622C56.3969 30.5287 56.8029 30.482 57.2416 30.482C57.6989 30.482 58.1049 30.5333 58.4596 30.636C58.8142 30.7293 59.1129 30.8647 59.3556 31.042C59.6076 31.2193 59.7989 31.434 59.9296 31.686C60.0602 31.9287 60.1256 32.19 60.1256 32.47C60.1256 32.526 60.1209 32.5867 60.1116 32.652C60.1116 32.708 60.1116 32.7453 60.1116 32.764H58.6836V32.638C58.6836 32.4513 58.6322 32.2833 58.5296 32.134C58.4269 31.9847 58.2636 31.8633 58.0396 31.77C57.8249 31.6767 57.5356 31.63 57.1716 31.63C56.9289 31.63 56.7142 31.6533 56.5276 31.7C56.3409 31.7373 56.1869 31.7933 56.0656 31.868C55.9442 31.9427 55.8509 32.0313 55.7856 32.134C55.7296 32.2367 55.7016 32.3533 55.7016 32.484C55.7016 32.6987 55.7762 32.8667 55.9256 32.988C56.0842 33.1 56.2896 33.198 56.5416 33.282C56.7936 33.3567 57.0642 33.4407 57.3536 33.534C57.6896 33.6273 58.0302 33.7253 58.3756 33.828C58.7209 33.9213 59.0382 34.0427 59.3276 34.192C59.6262 34.3413 59.8642 34.5467 60.0416 34.808C60.2282 35.0693 60.3216 35.4193 60.3216 35.858C60.3216 36.2593 60.2422 36.6093 60.0836 36.908C59.9249 37.2067 59.7009 37.4493 59.4116 37.636C59.1316 37.8133 58.8002 37.944 58.4176 38.028C58.0349 38.1213 57.6196 38.168 57.1716 38.168ZM67.2165 38V29.74H64.0385V28.396H71.9905V29.74H68.7845V38H67.2165ZM73.9816 38.168C73.7483 38.168 73.4963 38.14 73.2256 38.084C72.955 38.028 72.6983 37.9253 72.4556 37.776C72.2223 37.6267 72.031 37.4213 71.8816 37.16C71.7323 36.8893 71.6576 36.5393 71.6576 36.11C71.6576 35.606 71.7743 35.1907 72.0076 34.864C72.241 34.5373 72.5676 34.2807 72.9876 34.094C73.4076 33.9073 73.907 33.7767 74.4856 33.702C75.0736 33.6273 75.713 33.59 76.4036 33.59V32.862C76.4036 32.6193 76.3616 32.4047 76.2776 32.218C76.203 32.0313 76.0583 31.8867 75.8436 31.784C75.6383 31.6813 75.3396 31.63 74.9476 31.63C74.5556 31.63 74.2476 31.6813 74.0236 31.784C73.809 31.8773 73.655 31.9987 73.5616 32.148C73.4776 32.288 73.4356 32.442 73.4356 32.61V32.82H72.0356C72.0263 32.7733 72.0216 32.7267 72.0216 32.68C72.0216 32.6333 72.0216 32.5773 72.0216 32.512C72.0216 32.0733 72.143 31.7047 72.3856 31.406C72.6376 31.098 72.9876 30.8647 73.4356 30.706C73.8836 30.5473 74.4016 30.468 74.9896 30.468C75.6243 30.468 76.1516 30.5613 76.5716 30.748C77.001 30.9253 77.323 31.182 77.5376 31.518C77.7523 31.854 77.8596 32.26 77.8596 32.736V36.474C77.8596 36.6513 77.9016 36.7773 77.9856 36.852C78.079 36.9267 78.1863 36.964 78.3076 36.964H78.8116V37.944C78.6996 37.9907 78.5596 38.0373 78.3916 38.084C78.2236 38.1307 78.0276 38.154 77.8036 38.154C77.5516 38.154 77.337 38.1073 77.1596 38.014C76.9916 37.93 76.8516 37.8087 76.7396 37.65C76.637 37.482 76.567 37.2953 76.5296 37.09H76.4456C76.2776 37.3047 76.0723 37.496 75.8296 37.664C75.5963 37.8227 75.3256 37.944 75.0176 38.028C74.7096 38.1213 74.3643 38.168 73.9816 38.168ZM74.3876 36.964C74.677 36.964 74.943 36.922 75.1856 36.838C75.4376 36.7447 75.6523 36.6187 75.8296 36.46C76.007 36.292 76.147 36.096 76.2496 35.872C76.3523 35.6387 76.4036 35.3867 76.4036 35.116V34.626C75.7596 34.626 75.195 34.6633 74.7096 34.738C74.2243 34.8127 73.8463 34.9527 73.5756 35.158C73.305 35.354 73.1696 35.6293 73.1696 35.984C73.1696 36.1987 73.2163 36.3807 73.3096 36.53C73.403 36.67 73.543 36.7773 73.7296 36.852C73.9163 36.9267 74.1356 36.964 74.3876 36.964ZM79.8169 38V27.878H81.2729V38H79.8169ZM83.1528 38V27.878H84.6088V33.996L87.5068 30.636H89.2288L86.7368 33.492L89.3688 38H87.6888L85.7988 34.556L84.6088 35.732V38H83.1528Z" fill="#E6E6E6"/>
</svg>
